<?xml version="1.0" encoding="utf-8"?>
<!-- Generator: Adobe Illustrator 27.3.1, SVG Export Plug-In . SVG Version: 6.00 Build 0)  -->
<svg version="1.1" id="Layer_1" xmlns="http://www.w3.org/2000/svg" xmlns:xlink="http://www.w3.org/1999/xlink" x="0px" y="0px"
	 viewBox="0 0 31.9 32" style="enable-background:new 0 0 31.9 32;" xml:space="preserve">
<style type="text/css">
	.st0{fill:url(#SVGID_1_);}
	.st1{fill:url(#SVGID_00000163070201580337308800000014462462220517177263_);}
	.st2{fill:url(#SVGID_00000103982520204035863550000005545465294410104731_);}
	.st3{fill:url(#SVGID_00000059276069667159921170000011335012895829105852_);}
</style>
<linearGradient id="SVGID_1_" gradientUnits="userSpaceOnUse" x1="-5.999756e-02" y1="16" x2="31.94" y2="16">
	<stop  offset="0" style="stop-color:#41D1FF"/>
	<stop  offset="1" style="stop-color:#BD34FE"/>
</linearGradient>
<path class="st0" d="M31.7,13.2c-0.1-0.3-0.1-0.6-0.2-0.9c-0.5-1.2-1.6-2.1-3-2.1c-1.4,0-2.6,0.9-3,2.1c0,0.1-0.1,0.3-0.1,0.4
	c0,0,0,0,0,0c-0.7,2.3-2.8,4-5.4,4c-3.1,0-5.6-2.5-5.6-5.6c0-2.1,1.2-4,2.9-4.9C17.6,6.2,17.8,6,18.1,6c1-0.5,1.6-1.6,1.6-2.8
	c0-1.7-1.4-3.2-3.1-3.2c0,0-0.1,0-0.1,0h0c-0.2,0-0.3,0-0.5,0c-8.8,0-16,7.2-16,16s7.2,16,16,16s16-7.2,16-16
	C31.9,15,31.9,14.1,31.7,13.2z"/>
<linearGradient id="SVGID_00000134248226901093960760000017459844070337632129_" gradientUnits="userSpaceOnUse" x1="1.7524" y1="16" x2="8.1423" y2="16">
	<stop  offset="0" style="stop-color:#FFEA83"/>
	<stop  offset="8.333001e-02" style="stop-color:#FFDD35"/>
	<stop  offset="1" style="stop-color:#FFA800"/>
</linearGradient>
<path style="fill:url(#SVGID_00000134248226901093960760000017459844070337632129_);" d="M8.1,16c0,1.2-0.6,2.2-1.6,2.8
	c-0.2,0.1-0.5,0.2-0.7,0.3c-0.3,0.1-0.6,0.1-0.9,0.1c-1.8,0-3.2-1.4-3.2-3.2c0-1.8,1.4-3.2,3.2-3.2h0c0,0,0.1,0,0.1,0
	C6.8,12.9,8.1,14.3,8.1,16z"/>
<linearGradient id="SVGID_00000026133358096848824990000000289971371901890954_" gradientUnits="userSpaceOnUse" x1="16.8881" y1="11.3533" x2="23.2781" y2="11.3533">
	<stop  offset="0" style="stop-color:#FFEA83"/>
	<stop  offset="8.333001e-02" style="stop-color:#FFDD35"/>
	<stop  offset="1" style="stop-color:#FFA800"/>
</linearGradient>
<path style="fill:url(#SVGID_00000026133358096848824990000000289971371901890954_);" d="M23.3,11.4c0,1.8-1.4,3.2-3.2,3.2
	c-1.8,0-3.2-1.4-3.2-3.2c0-0.2,0-0.4,0.1-0.6c0,0,0,0,0,0c0-0.1,0.1-0.3,0.1-0.4c0.4-1.2,1.6-2.1,3-2.1c1.4,0,2.5,0.9,3,2.1
	c0.1,0.3,0.2,0.6,0.2,0.9C23.3,11.2,23.3,11.3,23.3,11.4z"/>
<linearGradient id="SVGID_00000171692674536592300190000009397745047598121092_" gradientUnits="userSpaceOnUse" x1="-487.1253" y1="941.3192" x2="-487.0663" y2="940.5813" gradientTransform="matrix(14.6164 0 0 -26.6459 7132.3525 25090.0078)">
	<stop  offset="0" style="stop-color:#FFEA83"/>
	<stop  offset="8.333001e-02" style="stop-color:#FFDD35"/>
	<stop  offset="1" style="stop-color:#FFA800"/>
</linearGradient>
<path style="fill:url(#SVGID_00000171692674536592300190000009397745047598121092_);" d="M16.8,7.3L7.4,9.2c-0.2,0-0.3,0.2-0.3,0.3
	l-0.6,9.8c0,0.2,0.1,0.4,0.3,0.4c0,0,0.1,0,0.1,0L9.6,19c0.2-0.1,0.5,0.2,0.4,0.4l-0.8,3.8c-0.1,0.3,0.2,0.5,0.4,0.4l1.6-0.5
	c0.3-0.1,0.5,0.1,0.4,0.4l-1.2,6c-0.1,0.4,0.4,0.6,0.6,0.3l0.1-0.2l7.7-15.3c0.1-0.3-0.1-0.5-0.4-0.5l-2.7,0.5
	c-0.3,0-0.5-0.2-0.4-0.4l1.8-6.1C17.3,7.5,17.1,7.3,16.8,7.3L16.8,7.3z"/>
</svg>
